<svg xmlns="http://www.w3.org/2000/svg" xmlns:xlink="http://www.w3.org/1999/xlink" version="1.1" x="0px" y="0px" viewBox="0 0 762.3 175.4" enable-background="new 0 0 762.3 175.4" xml:space="preserve"><style>.style0{fill:	#231F20;}</style><g><path d="M245.3 46c0-4 2.1-6.2 6-6.2h6.6c4.1 0 6.2 2.2 6.2 6.2v60.6c0 14.1 9.1 22.1 23.1 22.1s23.2-7.9 23.2-22.1 V46c0-4 2.1-6.2 6-6.2h6.8c4 0 6 2.2 6 6.2v60.7c0 23.4-16.8 39.3-41.9 39.3c-25.3 0-42.1-15.9-42.1-39.3V46z" class="style0"/><path d="M342.1 75.5c0-4 2.2-6.2 6.2-6.2h4.7c4 0 6 2.2 6 5.1v3.4c0 1.6-0.1 2.9-0.1 2.9h0.3 c0 0 6.6-13.2 24.1-13.2c20.3 0 33.4 16 33.4 39.3c0 23.8-14.7 39.3-34.4 39.3c-15.6 0-21.6-11.5-21.6-11.5h-0.3 c0 0 0.4 2.6 0.4 6.5v26.5c0 4.1-2.1 6.2-6.2 6.2h-6.3c-4 0-6.2-2.1-6.2-6.2V75.5z M378.8 130.3c10.3 0 18.8-8.4 18.8-23.2 c0-14.3-7.6-23.5-18.5-23.5c-9.7 0-19 7.1-19 23.7C360.1 118.8 366.6 130.3 378.8 130.3z" class="style0"/><path d="M425.1 130l1.8-2.6c2.2-3.1 4.7-3.4 8.4-1.5c3.5 1.9 9.1 5.1 16.8 5.1c6.5 0 10.4-2.9 10.4-7.6 c0-12.2-37.2-7.6-37.2-33.4c0-14.7 12.9-22.5 28.7-22.5c10 0 16.9 3.2 20.9 5.4c3.4 1.8 3.8 4.9 2.2 8.2l-1.5 2.6 c-1.8 3.5-4.6 4-8.2 2.4c-3.2-1.5-8.1-3.7-14.3-3.7c-6.5 0-10.1 2.6-10.1 7.4c0 12.4 37.2 7.5 37.2 33.1 c0 13.2-11.2 23.1-28.5 23.1c-12.1 0-20.4-4.6-25-7.6C423.2 136.5 422.9 133.3 425.1 130z" class="style0"/><path d="M491.9 55c0-4 2.2-6.2 6.2-6.2h5.9c4 0 6.2 2.2 6.2 6.2v15.3H521c4 0 6.2 2.2 6.2 6.2V79 c0 4.1-2.2 6.2-6 6.2h-11v29.1c0 11.2 6.9 13.4 12.1 14c4.6 0.4 6.2 1.9 6.2 6v4.6c0 4.4-2.5 6.2-7.6 6.2 c-13.4 0-29.3-7.2-29.3-27.5" class="style0"/><path d="M579 98h3.1v-1.8c0-9.9-6.3-13.2-14-13.2c-6.3 0-12.1 2.4-15.6 4.3c-3.7 1.6-6.5 1-8.2-2.5l-1.5-2.8 c-1.8-3.4-1.2-6.3 2.4-8.2c4.9-2.5 13.4-6.2 24.6-6.2c19.4 0 31 10.9 31 29.9v40.7c0 4.1-2.1 6.2-6.2 6.2h-5c-4 0-6-2.1-6-6.2v-2.9 c0-2.1 0.3-3.2 0.3-3.2h-0.3c0 0-7.1 14.1-23.5 14.1c-13.7 0-24.9-8.8-24.9-22.5C535.1 101.6 562.2 98 579 98z M565 131.8 c10.4 0 17.2-10.6 17.2-19.7v-2.8h-3.1c-9.4 0-25.4 1.5-25.4 12.6C553.7 126.9 557.5 131.8 565 131.8z" class="style0"/><path d="M613.9 55c0-4 2.2-6.2 6.2-6.2h5.9c4 0 6.2 2.2 6.2 6.2v15.3H643c4 0 6.2 2.2 6.2 6.2V79 c0 4.1-2.2 6.2-6 6.2h-11v29.1c0 11.2 6.9 13.4 12.1 14c4.6 0.4 6.2 1.9 6.2 6v4.6c0 4.4-2.5 6.2-7.6 6.2 c-13.4 0-29.3-7.2-29.3-27.5" class="style0"/><path d="M662.9 50.4V46c0-4 2.1-6.2 6-6.2h6.5c4 0 6.2 2.2 6.2 6.2v4.4c0 4-2.2 6-6.2 6h-6.5 C664.9 56.5 662.9 54.4 662.9 50.4z M662.9 75.5c0-4 2.1-6.2 6-6.2h6.5c4 0 6 2.2 6 6.2v62.7c0 4.1-2.1 6.2-6 6.2h-6.5 c-4 0-6-2.1-6-6.2V75.5z" class="style0"/><path d="M733 67.5c12.1 0 20.1 4.4 24.6 7.5c3.1 2.1 3.2 5.1 1.2 8.4l-1.9 2.9c-2.2 3.4-4.7 3.4-8.2 1.6 c-3.1-2.1-8.1-4.6-14.6-4.6c-13.8 0-22.8 10.4-22.8 23.2c0 12.6 9 23.5 23.4 23.5c7.4 0 13.2-3.2 16.8-5.7c3.7-2.1 6.5-1.6 8.4 1.9 l1.5 2.8c1.8 3.2 1.3 6.2-1.6 8.2c-4.6 3.4-13.7 8.7-26.6 8.7c-24.9 0-40.7-17.5-40.7-39.3C692.3 85.5 708.2 67.5 733 67.5z" class="style0"/><path d="M122.6 72.4v5.8c0 2.6 1.6 4.8 4 5.7l42.3 15.8c3.4 1.3 3.4 6.1 0 7.4l-62.1 23.1c-5.6 2.1-11.8 2.1-17.4 0 l-61.8-23c-3.5-1.3-3.5-6.3 0-7.6l42-15.7c2.4-0.9 4-3.2 4-5.7v-5.8c0-4.3-4.3-7.2-8.3-5.7L4 89.7c-2.4 0.9-4 3.2-4 5.7V136 c0 2.5 1.6 4.8 4 5.7l85.7 32.2c5.4 2 11.3 2 16.7 0l85.7-32.2c2.4-0.9 4-3.2 4-5.7V95.4c0-2.5-1.6-4.8-4-5.7l-61.3-23 C126.8 65.2 122.6 68.2 122.6 72.4z" class="style0"/><path d="M89.9 103.9h16.3c2.3 0 4.1-1.8 4.1-4.1V51.4c0-2.3 1.8-4.1 4.1-4.1h22.8c3.6 0 5.5-4.4 2.9-7L100.9 1.2 c-1.6-1.6-4.2-1.6-5.8 0L56 40.4c-2.6 2.6-0.8 7 2.9 7h22.8c2.3 0 4.1 1.8 4.1 4.1v48.4C85.8 102 87.6 103.9 89.9 103.9z" class="style0"/></g></svg>
