<svg xmlns="http://www.w3.org/2000/svg" xmlns:xlink="http://www.w3.org/1999/xlink" version="1.1" x="0" y="0" viewBox="10 -14 175 190" height="140" width="140" xml:space="preserve">
  <g>
<path d="M122.6 72.4v5.8c0 2.6 1.6 4.8 4 5.7l42.3 15.8c3.4 1.3 3.4 6.1 0 7.4l-62.1 23.1c-5.6 2.1-11.8 2.1-17.4 0 l-61.8-23c-3.5-1.3-3.5-6.3 0-7.6l42-15.7c2.4-0.9 4-3.2 4-5.7v-5.8c0-4.3-4.3-7.2-8.3-5.7L4 89.7c-2.4 0.9-4 3.2-4 5.7V136 c0 2.5 1.6 4.8 4 5.7l85.7 32.2c5.4 2 11.3 2 16.7 0l85.7-32.2c2.4-0.9 4-3.2 4-5.7V95.4c0-2.5-1.6-4.8-4-5.7l-61.3-23 C126.8 65.2 122.6 68.2 122.6 72.4z" fill="#98cfea" />
<path d="M89.9 103.9h16.3c2.3 0 4.1-1.8 4.1-4.1V51.4c0-2.3 1.8-4.1 4.1-4.1h22.8c3.6 0 5.5-4.4 2.9-7L100.9 1.2 c-1.6-1.6-4.2-1.6-5.8 0L56 40.4c-2.6 2.6-0.8 7 2.9 7h22.8c2.3 0 4.1 1.8 4.1 4.1v48.4C85.8 102 87.6 103.9 89.9 103.9z" fill="#fff">
<animateTransform attributeName="transform" attributeType="XML" type="translate" values="0 -6;0 0;0 0;0 0;0 0;0 0;0 -8" from="0" to="8" begin="0s" dur="4.4s" keySplines="0.1 0.8 0.2 0.9; 0.1 0.8 0.2 0.8; 0.1 0.1 0.2 0.7; 0.1 0.8 0.2 0.8; 0.1 0.8 0.2 1; 0.1 0.8 0.2 1" keyTimes="0;0.22;0.33;0.5;0.66;0.9;1" calcMode="spline" repeatCount="indefinite" />
</path>
</g>
</svg>
